<?xml version="1.0" standalone="no"?>
<!DOCTYPE svg PUBLIC "-//W3C//DTD SVG 1.1//EN" "http://www.w3.org/Graphics/SVG/1.1/DTD/svg11.dtd">
<svg xmlns="http://www.w3.org/2000/svg" width="1000" height="556" viewBox="0 0 1000 556" fill="none">
<path d="M694.721 277.867L663.786 30.3917C661.616 13.025 646.854 0 629.27 0H446.269C429.988 0 416.854 13.1335 416.854 29.4148C416.854 32.8881 417.505 36.47 418.699 39.7262L468.954 173.667H317.756C295.83 173.667 277.921 191.467 277.921 213.501C277.921 221.533 280.309 229.348 284.868 235.97L493.485 540.971C499.889 550.306 510.417 555.842 521.597 555.842H524.745C541.786 555.842 555.679 541.948 555.679 524.907C555.679 522.411 555.353 519.914 554.702 517.418L503.687 312.6H659.987C679.199 312.6 694.721 297.078 694.721 277.867Z" fill="url(#paint0_linear_3_63)"/>
<path d="M10.1758 253.39C-3.39193 266.958 -3.39193 288.992 10.1758 302.56L218.576 510.96C232.143 524.527 254.177 524.527 267.745 510.96C281.313 497.392 281.313 475.358 267.745 461.79L83.8755 277.921L267.637 94.0513C281.204 80.4836 281.204 58.4496 267.637 44.8819C254.069 31.3142 232.035 31.3142 218.467 44.8819L10.0672 253.282L10.1758 253.39Z" fill="url(#paint1_linear_3_63)"/>
<path d="M989.824 253.39C1003.39 266.958 1003.39 288.992 989.824 302.56L781.424 510.96C767.857 524.527 745.823 524.527 732.255 510.96C718.687 497.392 718.687 475.358 732.255 461.79L916.125 277.921L732.364 94.0513C718.796 80.4836 718.796 58.4496 732.364 44.8819C745.931 31.3142 767.965 31.3142 781.533 44.8819L989.933 253.282L989.824 253.39Z" fill="url(#paint2_linear_3_63)"/>
<defs>
<linearGradient id="paint0_linear_3_63" x1="486.321" y1="7.03241" x2="486.321" y2="555.842" gradientUnits="userSpaceOnUse">
<stop stop-color="#2979FF"/>
<stop offset="1" stop-color="#2AFC98"/>
</linearGradient>
<linearGradient id="paint1_linear_3_63" x1="0" y1="34.7062" x2="138.96" y2="521.136" gradientUnits="userSpaceOnUse">
<stop stop-color="#2979FF"/>
<stop offset="1" stop-color="#2AFC98"/>
</linearGradient>
<linearGradient id="paint2_linear_3_63" x1="1000" y1="34.7062" x2="861.04" y2="521.136" gradientUnits="userSpaceOnUse">
<stop stop-color="#2979FF"/>
<stop offset="1" stop-color="#2AFC98"/>
</linearGradient>
</defs>
</svg>